<svg class="icon" width="200" height="200" viewBox="0 0 1024 1024" xmlns="http://www.w3.org/2000/svg"><path d="M927.168 175.25a26.168 26.168 0 00-3.982-14.22v-4.552h-2.844a29.58 29.58 0 00-10.24-10.24 10.24 10.24 0 00-3.982 0 39.82 39.82 0 00-16.497-9.67h-56.886V40.43a35.27 35.27 0 00-5.689-19.91A40.39 40.39 0 00790.072.041H201.868A109.222 109.222 0 0093.215 108.694V915.34a109.222 109.222 0 00108.653 108.653h687.755a33.563 33.563 0 0016.497-3.982 39.252 39.252 0 0011.377-7.395h2.845a33.563 33.563 0 005.12-6.257 36.407 36.407 0 004.55-26.168V175.25zm-177.485-38.682H202.437a27.874 27.874 0 01-26.168-27.874 27.305 27.305 0 0126.168-27.306h547.246zm96.707 80.779v725.3H201.868a27.305 27.305 0 01-27.306-27.306V213.933a113.773 113.773 0 0027.306 3.414zm54.042-67.695z"/><path d="M320.76 418.155H691.66a40.958 40.958 0 000-81.347H320.76a40.958 40.958 0 000 81.347zm0 139.372h189.432a40.958 40.958 0 100-81.348H320.76a40.958 40.958 0 000 81.348z"/></svg>