<?xml version="1.0" standalone="no"?><!DOCTYPE svg PUBLIC "-//W3C//DTD SVG 1.1//EN" "http://www.w3.org/Graphics/SVG/1.1/DTD/svg11.dtd"><svg t="1565600834143" class="icon" viewBox="0 0 1026 1024" version="1.1" xmlns="http://www.w3.org/2000/svg" p-id="7419" xmlns:xlink="http://www.w3.org/1999/xlink" width="200.390625" height="200"><defs><style type="text/css"></style></defs><path d="M205.654084 1024a87.802787 87.802787 0 0 1-89.778349-85.900393V313.309611a51.218292 51.218292 0 0 1 102.436584 0v551.328331a62.632655 62.632655 0 0 0 63.949697 61.096106h460.96463a62.559486 62.559486 0 0 0 63.876527-61.096106V313.309611a51.218292 51.218292 0 0 1 102.436585 0v624.789996a87.802787 87.802787 0 0 1-89.851519 85.900393z m371.405788-196.166059V350.040443a51.218292 51.218292 0 0 1 102.436585 0v477.793498a51.218292 51.218292 0 0 1-102.436585 0z m-230.628653 0V350.040443a51.218292 51.218292 0 0 1 102.436585 0v477.793498a51.218292 51.218292 0 0 1-102.436585 0zM51.926039 215.409503a49.24273 49.24273 0 1 1 0-98.339121h922.295105a49.24273 49.24273 0 1 1 0 98.339121z m307.309753-117.070382a49.169561 49.169561 0 1 1 0-98.339121h307.309754a49.169561 49.169561 0 1 1 0 98.339121z" p-id="7420"></path></svg>