<?xml version="1.0" standalone="no"?><!DOCTYPE svg PUBLIC "-//W3C//DTD SVG 1.1//EN" "http://www.w3.org/Graphics/SVG/1.1/DTD/svg11.dtd"><svg class="icon" width="200px" height="200.00px" viewBox="0 0 1024 1024" version="1.1" xmlns="http://www.w3.org/2000/svg"><path d="M796.448 1024H227.552A167.36 167.36 0 0 1 63.2 859.648V164.352A167.36 167.36 0 0 1 227.552 0h568.896a167.36 167.36 0 0 1 164.352 164.352v695.296A167.36 167.36 0 0 1 796.448 1024zM227.552 75.84a86.4 86.4 0 0 0-88.512 88.512v695.296a86.4 86.4 0 0 0 88.512 88.512h568.896a86.4 86.4 0 0 0 88.512-88.512V164.352a86.4 86.4 0 0 0-88.512-88.512H227.552zM693.088 334.208H315.808a34.752 34.752 0 0 1-32.32-32.32 34.752 34.752 0 0 1 32.32-32.32h377.28a34.752 34.752 0 0 1 32.32 32.32 31.04 31.04 0 0 1-32.32 32.32zM693.088 544.32H315.808a32.32 32.32 0 1 1 0-64.64h377.28a34.752 34.752 0 0 1 32.32 32.32 31.04 31.04 0 0 1-32.32 32.32zM693.088 754.432H315.808a32.32 32.32 0 0 1 0-64.64h377.28a34.752 34.752 0 0 1 32.32 32.32 31.04 31.04 0 0 1-32.32 32.32z" /></svg>