<?xml version="1.0" standalone="no"?><!DOCTYPE svg PUBLIC "-//W3C//DTD SVG 1.1//EN" "http://www.w3.org/Graphics/SVG/1.1/DTD/svg11.dtd"><svg class="icon" viewBox="0 0 1026 1024" version="1.1" xmlns="http://www.w3.org/2000/svg"><path d="M323.202926 833.828571l51.712-51.712 102.4 102.4V438.857143h73.142857v445.147428l102.4-102.4 51.712 51.712L513.374354 1024zM659.660069 731.428571V658.285714h128a164.425143 164.425143 0 0 0 10.971428-328.484571l-60.342857-4.096-7.314286-60.050286a219.428571 219.428571 0 0 0-435.126857 0l-7.314286 60.050286-60.416 4.096A164.425143 164.425143 0 0 0 239.161783 658.285714H367.08864v73.142857H239.08864a237.568 237.568 0 0 1-15.872-474.624 292.571429 292.571429 0 0 1 580.388571 0A237.568 237.568 0 0 1 787.733211 731.428571z" /></svg>