<?xml version="1.0" standalone="no"?><!DOCTYPE svg PUBLIC "-//W3C//DTD SVG 1.1//EN" "http://www.w3.org/Graphics/SVG/1.1/DTD/svg11.dtd"><svg t="1565763495782" class="icon" viewBox="0 0 1024 1024" version="1.1" xmlns="http://www.w3.org/2000/svg" p-id="14305" xmlns:xlink="http://www.w3.org/1999/xlink" width="200" height="200"><defs><style type="text/css"></style></defs><path d="M818.322286 940.324571a41.910857 41.910857 0 0 1 0 83.675429H113.298286a41.910857 41.910857 0 0 1 0-83.675429zM111.177143 883.858286l95.817143-268.507429 156.16 163.913143L111.177143 883.931429z m283.940571-135.533715L237.641143 583.094857l428.105143-445.659428 157.476571 165.229714-428.105143 445.659428z m457.435429-479.963428L695.076571 103.131429 773.851429 20.553143a64.585143 64.585143 0 0 1 94.427428 0l62.976 65.828571a72.630857 72.630857 0 0 1 0 99.181715l-78.701714 82.578285z" p-id="14306"></path></svg>